<svg xmlns="http://www.w3.org/2000/svg" viewBox="0 0 80.56 14.5"><defs><style>.cls-1{fill:#fff;}.cls-2{fill:none;stroke:#fff;stroke-miterlimit:10;stroke-width:0.75px;}.cls-3{fill:#d7da00;}</style></defs><g id="Слой_2" data-name="Слой 2"><path class="cls-1" d="M32.34,10.28a1.58,1.58,0,0,1-.46-1,1.62,1.62,0,0,1-.43,1,1.54,1.54,0,0,1-1,.46,1.6,1.6,0,0,1,1,.41,1.53,1.53,0,0,1,.48,1,1.61,1.61,0,0,1,.44-1,1.57,1.57,0,0,1,1-.46A1.63,1.63,0,0,1,32.34,10.28Zm-.3.61a.5.5,0,0,0-.15.35.64.64,0,0,0-.17-.37.52.52,0,0,0-.34-.14.55.55,0,0,0,.35-.16.57.57,0,0,0,.16-.34.55.55,0,0,0,.16.35.52.52,0,0,0,.35.15A.51.51,0,0,0,32,10.89Z" transform="translate(-6.01 -6.79)"/><polygon class="cls-1" points="16.74 14.05 18.28 14.05 18.28 9.12 23.21 9.12 23.21 7.66 18.28 7.66 18.28 3.9 23.43 3.9 23.43 2.43 16.74 2.43 16.74 14.05"/><rect class="cls-1" x="25.15" y="5.75" width="1.44" height="8.3"/><rect class="cls-1" x="28.8" y="2.5" width="1.44" height="11.55"/><path class="cls-1" d="M56.93,9.22H52.71V20.84h1.55V16.69h2.67A3.67,3.67,0,0,0,60.68,13a3.66,3.66,0,0,0-3.75-3.74Zm1.59,5.37a2.1,2.1,0,0,1-1.59.66H54.26V10.67h2.67a2.1,2.1,0,0,1,1.59.65A2.24,2.24,0,0,1,59.15,13,2.25,2.25,0,0,1,58.52,14.59Z" transform="translate(-6.01 -6.79)"/><path class="cls-1" d="M68.6,14a3.54,3.54,0,0,0-3.14-1.64,4,4,0,0,0-3,1.27,4.27,4.27,0,0,0-1.23,3.09,4.29,4.29,0,0,0,1.23,3.1,4,4,0,0,0,3,1.27,3.54,3.54,0,0,0,3.14-1.64v1.42H70v-8.3H68.6Zm-.85,4.84a3,3,0,0,1-4.2,0,3.08,3.08,0,0,1,0-4.23,3,3,0,0,1,5,2.11A2.88,2.88,0,0,1,67.75,18.81Z" transform="translate(-6.01 -6.79)"/><path class="cls-1" d="M76.47,16.42c-.46-.15-.91-.28-1.36-.4a4.53,4.53,0,0,1-1.17-.46.88.88,0,0,1-.48-.78,1,1,0,0,1,.43-.82,1.88,1.88,0,0,1,1-.29,1.75,1.75,0,0,1,1.78,1.06l1.21-.68a3,3,0,0,0-1.19-1.27,3.54,3.54,0,0,0-1.8-.45,3.15,3.15,0,0,0-2.1.7A2.19,2.19,0,0,0,72,14.8a2,2,0,0,0,.48,1.36,2.73,2.73,0,0,0,1.17.77c.45.15.9.29,1.36.4a4.26,4.26,0,0,1,1.16.47.87.87,0,0,1,.48.77.91.91,0,0,1-.47.85A2.18,2.18,0,0,1,75,19.7a2.45,2.45,0,0,1-1.32-.35,1.74,1.74,0,0,1-.74-1l-1.25.72a3.1,3.1,0,0,0,1.23,1.41,3.94,3.94,0,0,0,2.08.53,3.55,3.55,0,0,0,2.23-.68,2.19,2.19,0,0,0,.87-1.81,2,2,0,0,0-.48-1.39A2.64,2.64,0,0,0,76.47,16.42Z" transform="translate(-6.01 -6.79)"/><path class="cls-1" d="M83.56,16.42c-.46-.15-.91-.28-1.37-.4A4.6,4.6,0,0,1,81,15.56a.88.88,0,0,1-.48-.78A.94.94,0,0,1,81,14a1.88,1.88,0,0,1,1-.29,2.15,2.15,0,0,1,1,.24l1.17-.84a2.41,2.41,0,0,0-.4-.29,3.59,3.59,0,0,0-1.8-.45,3.15,3.15,0,0,0-2.1.7,2.19,2.19,0,0,0-.84,1.77,2,2,0,0,0,.48,1.36,2.75,2.75,0,0,0,1.16.77c.46.15.91.29,1.36.4a4.2,4.2,0,0,1,1.17.47.87.87,0,0,1,.48.77.91.91,0,0,1-.47.85,2.22,2.22,0,0,1-1.18.28,2.44,2.44,0,0,1-1.31-.35,1.74,1.74,0,0,1-.74-1l-1.25.72A3,3,0,0,0,80,20.53a3.93,3.93,0,0,0,2.07.53,3.56,3.56,0,0,0,2.24-.68,2.19,2.19,0,0,0,.87-1.81,2,2,0,0,0-.48-1.39A2.64,2.64,0,0,0,83.56,16.42Z" transform="translate(-6.01 -6.79)"/><path class="cls-1" d="M49.07,12.74a3.1,3.1,0,0,0-1.64-.41,3,3,0,0,0-1.87.57,2.8,2.8,0,0,0-.89,1.24l0,.22,0-.2v0a2.73,2.73,0,0,0-.93-1.24,3.13,3.13,0,0,0-1.93-.57,3.31,3.31,0,0,0-1.69.41,2.73,2.73,0,0,0-.64.49,3.33,3.33,0,0,0-.89,2.45v5.16H40V15.73a2.06,2.06,0,0,1,.51-1.49,1.82,1.82,0,0,1,1.38-.53,2,2,0,0,1,1.53.62,2.68,2.68,0,0,1,.58,1.9v4.61h1.24V16.23a2.78,2.78,0,0,1,.56-1.9,1.86,1.86,0,0,1,1.48-.62,1.7,1.7,0,0,1,1.33.53,2.1,2.1,0,0,1,.5,1.49v5.11h1.44V15.68a3.39,3.39,0,0,0-.86-2.45A2.84,2.84,0,0,0,49.07,12.74Z" transform="translate(-6.01 -6.79)"/><path class="cls-1" d="M85.55,13.59a1.6,1.6,0,0,1-.46-1,1.59,1.59,0,0,1-.44,1,1.51,1.51,0,0,1-1,.46,1.52,1.52,0,0,1,1.47,1.46,1.61,1.61,0,0,1,.44-1,1.57,1.57,0,0,1,1-.46A1.61,1.61,0,0,1,85.55,13.59Zm-.3.57a.57.57,0,0,0-.16.34.53.53,0,0,0-.16-.36.52.52,0,0,0-.34-.14.55.55,0,0,0,.35-.16.55.55,0,0,0,.15-.34.57.57,0,0,0,.16.34.65.65,0,0,0,.36.16A.51.51,0,0,0,85.25,14.16Z" transform="translate(-6.01 -6.79)"/><path class="cls-2" d="M19,11.3,11.7,20.77l-.85-.66a1,1,0,0,0-.36-.94A1,1,0,0,0,9.43,19l-.72-.55a1.18,1.18,0,0,0-.49-.89,1.12,1.12,0,0,0-.9-.18l-.78-.61,7.3-9.46.91.7a.86.86,0,0,0,1.2.92l.87.67a.92.92,0,0,0,.19.66.9.9,0,0,0,1,.25Z" transform="translate(-6.01 -6.79)"/><path class="cls-3" d="M12.76,12.28a2,2,0,0,0,.56,1.21,1.9,1.9,0,0,0,1.25.53,2,2,0,0,0-1.27.56,1.93,1.93,0,0,0-.54,1.22,1.87,1.87,0,0,0-.58-1.27A1.83,1.83,0,0,0,11,14a2,2,0,0,0,1.26-.57A1.91,1.91,0,0,0,12.76,12.28Z" transform="translate(-6.01 -6.79)"/><rect class="cls-1" x="12.91" y="9.66" width="0.61" height="0.61" transform="translate(23.24 -0.87) rotate(128.86)"/><rect class="cls-1" x="16.24" y="12.34" width="0.61" height="0.61" transform="translate(5.58 -14.37) rotate(38.86)"/><rect class="cls-1" x="15.39" y="11.65" width="0.61" height="0.61" transform="translate(28.84 0.45) rotate(128.86)"/><rect class="cls-1" x="14.6" y="11.02" width="0.61" height="0.61" transform="translate(27.07 0.03) rotate(128.86)"/><rect class="cls-1" x="13.75" y="10.33" width="0.61" height="0.61" transform="translate(25.14 -0.42) rotate(128.86)"/><rect class="cls-1" x="8.24" y="15.52" width="0.61" height="0.61" transform="translate(20.21 12.3) rotate(128.86)"/><rect class="cls-1" x="11.57" y="18.2" width="0.61" height="0.61" transform="translate(8.22 -10.14) rotate(38.86)"/><rect class="cls-1" x="10.72" y="17.51" width="0.61" height="0.61" transform="translate(25.8 13.63) rotate(128.86)"/><rect class="cls-1" x="9.93" y="16.88" width="0.61" height="0.61" transform="translate(24.03 13.21) rotate(128.86)"/><rect class="cls-1" x="9.08" y="16.19" width="0.61" height="0.61" transform="translate(22.1 12.75) rotate(128.86)"/></g></svg>